<?xml version="1.0" standalone="no"?>
<!DOCTYPE svg PUBLIC "-//W3C//DTD SVG 20010904//EN"
 "http://www.w3.org/TR/2001/REC-SVG-20010904/DTD/svg10.dtd">
<svg version="1.0" xmlns="http://www.w3.org/2000/svg"
 width="700.000000pt" height="700.000000pt" viewBox="0 0 700.000000 700.000000"
 preserveAspectRatio="xMidYMid meet">
<metadata>
Created by potrace 1.11, written by Peter Selinger 2001-2013
</metadata>
<g transform="translate(0.000000,700.000000) scale(0.100000,-0.100000)"
fill="#000000" stroke="none">
<path d="M0 3500 l0 -3500 3500 0 3500 0 0 3500 0 3500 -3500 0 -3500 0 0
-3500z m2765 2724 c15 -20 23 -39 19 -43 -5 -5 -129 -99 -276 -210 l-268 -202
0 -184 0 -184 388 -553 387 -553 3 83 3 82 477 -2 477 -3 5 -91 5 -91 398 568
397 568 0 178 0 178 -271 204 c-148 113 -273 209 -276 214 -5 8 37 77 47 77 3
0 115 -83 250 -185 l244 -185 243 0 243 0 1 -182 0 -183 274 -205 c151 -113
274 -207 274 -210 1 -3 -12 -21 -28 -40 l-28 -34 -250 187 -250 187 -179 0
-179 -1 -457 -654 -458 -654 0 -276 0 -275 945 0 945 0 0 95 0 95 100 0 100 0
0 360 0 360 45 0 45 0 0 -360 0 -360 95 0 95 0 0 -240 0 -240 -90 0 -90 0 -2
-357 -3 -358 -47 -3 -48 -3 0 360 0 361 -95 0 -95 0 0 95 0 95 -950 0 -950 0
0 -263 0 -264 456 -651 455 -652 187 0 187 0 245 186 245 185 27 -33 c15 -18
28 -36 28 -40 0 -5 -124 -101 -275 -214 l-275 -206 -2 -182 -3 -181 -245 -5
-245 -5 -230 -174 c-126 -95 -235 -178 -241 -183 -8 -6 -22 4 -42 30 l-30 38
279 209 279 210 0 177 0 177 -397 568 -398 568 -5 -100 -5 -100 -477 -3 -478
-2 0 85 c0 47 -3 85 -7 85 -5 -1 -180 -247 -390 -548 l-383 -547 0 -181 0
-181 275 -207 c295 -223 282 -208 237 -264 l-18 -23 -247 186 -247 185 -240 0
-240 0 -2 183 -3 182 -277 209 -277 209 30 38 30 39 252 -190 252 -190 177 0
177 0 450 643 451 642 0 278 0 277 -950 0 -949 0 -3 -92 -3 -93 -97 -3 -98 -3
0 -359 0 -360 -45 0 -45 0 0 360 0 360 -95 0 -95 0 0 240 0 240 95 0 95 0 0
360 0 360 45 0 45 0 2 -357 3 -358 98 -3 97 -3 0 -94 0 -95 945 0 945 0 0 293
0 292 -447 638 -446 637 -177 0 -178 0 -250 -189 -251 -190 -26 35 c-15 19
-25 39 -23 43 2 5 125 101 273 213 l270 204 3 182 2 182 239 0 239 0 243 184
c134 102 247 185 250 185 4 1 19 -15 34 -35z m965 -1234 l0 -240 -95 0 -95 0
0 -45 0 -45 215 0 215 0 0 -50 0 -50 -477 2 -478 3 0 45 0 45 218 3 217 2 0
45 0 45 -100 0 -100 0 0 240 0 240 240 0 240 0 0 -240z m250 -2605 l0 -45
-480 0 -480 0 0 45 0 45 480 0 480 0 0 -45z"/>
<path d="M3130 3740 l0 -180 180 0 180 0 0 180 0 180 -180 0 -180 0 0 -180z"/>
<path d="M3500 3365 l0 -185 180 0 180 0 0 185 0 185 -180 0 -180 0 0 -185z"/>
<path d="M3446 5049 c-55 -43 -22 -133 49 -133 46 0 75 31 75 79 0 38 -37 75
-75 75 -12 0 -34 -9 -49 -21z"/>
</g>
</svg>
